<?xml version="1.0" encoding="UTF-8"?><!DOCTYPE svg PUBLIC "-//W3C//DTD SVG 1.0//EN" "http://www.w3.org/TR/2001/REC-SVG-20010904/DTD/svg10.dtd" []><svg xmlns="http://www.w3.org/2000/svg" xmlns:xlink="http://www.w3.org/1999/xlink" height="4153" preserveAspectRatio="xMidYMid meet" version="1.0" viewBox="764.5 397.0 3483.4 4152.6" width="3483" zoomAndPan="magnify"><g id="change1_1"><path d="m4184.8 2116.5c63.049-67.896 53.835-308.77 18.569-675.44-3.8521-39.752-6.8395-70.769-7.8615-88.222-6.0376-104.1-209.56-122.86-373.72-121 67.845-112.84 82.577-252.5 40.188-398.82l-17.987-62.719c-88.363-310.72-120.36-373.28-500.89-280.63-339.99 82.766-646.83 454.64-730.17 562.84-22.468-10.126-47.185-16.065-73.379-16.065-29.025 0-56.068 7.5824-80.376 19.874-90.8-120.67-435.45-549.86-766.38-582.41-364.38-35.856-525.01 19.072-575.82 452.16-14.308 121.98-0.62892 226.02 39.402 311.7-94.464 4.9213-264.4 13.722-309.99 15.782-21.996 1.0023-39.826 8.8756-53.049 23.415-28.852 31.686-26.336 82.223-21.383 182.92 2.61 53.057 5.8804 119.08 5.8804 202.33v422.02c0 55.754 32.122 78.536 92.247 89.53-0.73898 236.05-6.1162 2025 0.11006 2168.2 6.8552 158.6 51.021 164.84 190.12 161.33 24.355-0.6525 52.892-1.419 86.303-1.419 186.68 0 958.11 1.8474 1126.8 2.2602 0.23584 0.71146 0.48741 1.9536 0.72326 2.4449 16.368 33.71 137.67 43.077 260.8 43.077 130.28 0 262.64-10.507 274.65-13.793 6.1477-1.6863 9.8897-4.2727 14.434-6.5761 56.713 0.1022 111.15 0.15723 163.14 0.15723 1125.7 0 1155.9-23.415 1169.2-33.71 44.59-34.634 45.659-91.036 48.773-258.47 0.58175-31.348 1.2578-66.929 2.2798-107.35 5.4873-218.71-15.125-1689.3-51.807-1993.8 12.358-5.9747 22.5-12.46 29.213-19.685zm-69.747-758.98c1.022 18.066 4.1351 50.144 8.0659 91.252 35.612 370.17 36.524 576.37 2.6729 612.82-41.98 41.76-397.73 57.353-712.19 48.474-34.386-54.814-73.395-117.06-116.66-188-138.77-227.38-294.49-410.82-401.86-525.92 152.09 47.358 305.97 69.161 482.58 69.161 148.49 0 286.54-55.64 380.61-151.05 173.16-7.0124 340.94 13.427 356.79 43.266zm-1311.8 550.5c22.877 58.147 44.999 117.08 65.926 175.08h-59.669c-1.7295-59.818-3.7421-119.33-6.2577-175.08zm-177.29-535.69c25.047-13.903 46.823-32.94 62.719-56.634 8.003 3.7106 16.006 7.4212 23.962 10.982 30.691 28.502 298.5 281.86 515.49 637.38 44.244 72.499 84.149 136.18 119.1 191.95 84.904 135.39 165.08 263.27 158.53 290.05-0.031446 0.019654-2.3113 1.8514-9.764 3.6202l-25.927 6.1241c-113.39 26.623-230.64 54.177-269.13 113.82-27.594 42.707-59.873 69.924-67.357 71.771-0.031446-0.039307-6.3678-5.3537-12.122-29.26-22.028-91.783-266.94-929.51-495.51-1239.8zm736.2-804.33c318.53-77.495 323.33-60.494 404.28 224.37l18.081 63.092c40.565 139.96 22.625 266.36-51.839 365.53-77.027 102.51-209.74 163.71-355.02 163.71-245.88 0-445.53-43.961-661.01-144.8 1.0692-7.9047 2.4213-15.735 2.4213-23.926 0-4.8034-1.0534-9.3198-1.4151-14.029 7.7671-6.5132 17.924-14.905 30.927-25.369 28.506 12.791 138.35 57.129 313.63 68.308 18.302 1.1596 39.119 1.8081 61.744 1.8081 177.15 0 464.99-39.693 528.28-180.66 28.93-64.429 82.813-184.36 23.223-263.55-43.38-57.581-132.69-75.844-273.42-55.691-281.17 40.141-599.14 281.25-711.5 372.87-4.0565-6.3403-8.8049-12.083-13.6-17.846 78.175-100.63 373.83-458.01 685.22-533.81zm-539.03 550.91c141.19-105.17 381.52-262.51 590.3-292.34 140.91-20.149 184.29 6.6744 197.59 24.386 30.974 41.147-13.38 139.88-32.311 182.05-40.974 91.276-303.92 144.58-511.39 131.42-113.03-7.2011-196.52-29.422-244.19-45.518zm-184.67 97.058c0 54.531-44.354 98.909-98.913 98.909-54.543 0-98.897-44.378-98.897-98.909 0-9.7286 1.8396-18.946 4.4653-27.834l10.912-17.901c-0.37735-0.23584-2.0283-1.2343-2.7358-1.6666 16.855-30.534 48.977-51.508 86.256-51.508 54.559 0 98.913 44.378 98.913 98.909zm-729.94 1266.6c-4.0565 25.507-8.3174 39.382-11.258 46.681-10.676-6.1398-27.043-18.793-39.795-28.675-29.323-22.649-65.816-50.832-110.36-70.942-79.464-35.837-150.91-48.155-197.35-52.153 26.289-87.514 98.992-285.84 265.04-496.98 211.84-269.44 522.19-504.92 558.32-531.94 12.626-5.6288 23.034-10.468 32.059-14.776 5.5188 6.2892 11.415 12.087 17.767 17.555-250.01 350.89-488.17 966.42-514.42 1131.2zm381.34-749.23c-4.7169 91.775-10.786 212.92-17.185 349.78h-143.94c46.43-111.92 101.48-233.1 161.13-349.78zm-1092.8-797.85c43.332-368.72 148.38-414.69 487.88-381.35 297.6 29.268 630.3 445.65 712.11 553.93-4.6697 6.1516-8.7891 12.606-12.657 19.343-147.17-86.972-488.04-282.82-709.2-365.36-195.89-73.108-295.31-38.828-344.16 2.8341-52.593 44.791-72.027 117.09-54.747 203.57 11.415 57.09 58.835 113.67 133.58 159.34 77.027 47.071 368.12 189.36 879.43 44.178l-2.2798-8.0462c28.852 16.757 53.851 31.462 73.929 43.356-0.14151 2.9441-0.88049 5.7153-0.88049 8.6948 0 16.21 2.8459 31.627 6.9024 46.571-86.445 40.392-340.28 146.98-631.97 157.84-206.63 7.8143-363.07-38.985-451.75-135.02-74.904-81.119-103.91-198.82-86.193-349.88zm1000.6 177.15c-346.97 83.005-610.49 29.025-745.77-53.627-54.496-33.337-89.731-72.086-96.57-106.35-6.5407-32.743-11.619-92.706 27.971-126.42 20.864-17.771 51.65-26.623 90.69-26.623 46.76 0 105.36 12.692 173.02 37.959 157.4 58.745 384.43 180.85 550.67 275.06zm-1339.2 971.61v-422.02c0-85.234-3.3018-152.36-5.9747-206.3-2.5157-51.245-5.1257-104.13-0.15723-121.94 58.081-2.6729 283.23-14.402 352.15-18.003 6.3992 8.1091 12.5 16.427 19.544 24.064 98.096 106.21 259.33 161.77 468.18 161.75 15.031 0 30.298-0.27515 45.817-0.84511 150.11-5.5974 288.66-34.532 402.49-67.738-116.85 100.78-266.96 242.2-389.03 397.45-76.901 97.781-134.38 192.32-177.39 275.87-87.923 1.474-397.35 6.0337-533.64-0.38521l-21.996-1.0023c-76.241-3.4826-148.24-6.7687-159.6-16.651 0-0.019654-0.39307-1.1989-0.39307-4.2491zm288.19 2337c-34.245 0-63.489 0.77042-88.473 1.4387-44.244 1.1006-86.083 2.2838-95.297-4.6265-5.9433-4.4457-10.031-31.23-12.122-79.621-6.0062-137.99-0.86476-1897.3-0.062892-2156.2 19.937 1.2264 40.943 2.3113 64.055 3.3686l21.934 1.0023c55.14 2.5589 136.38 3.404 220.09 3.404 104.02 0 211.63-1.3129 278.12-2.2995-56.76 127.18-75.313 214.09-76.602 220.41l-10.503 51.736 52.735-3.4237c0.94338-0.019654 97.577-5.6681 213.49 46.599 35.927 16.199 66.87 40.129 94.181 61.245 33.647 25.994 63.615 49.158 95.171 49.158 7.9873-0.019654 16.053-1.478 24.323-4.7641 39.748-15.762 52.546-63.859 60.455-113.49 9.3552-58.615 49.26-182.41 108.03-331.54h172.83c-10.346 226.96-21.053 486.52-28.018 722.02-13.034 441.54 3.6634 1271.7 22.987 1537.8-187.42-0.45204-934.13-2.2366-1117.3-2.2366zm1200.1 38.238c-13.852-146.51-41.32-1022.2-25.11-1571.4 16.179-548.65 52.782-1228.7 57.703-1319.1 37.939-65.364 76.775-125.95 115.67-179.79 14.355 3.7106 29.135 6.297 44.622 6.297 0.7547 0 1.4622-0.21619 2.2012-0.22405 52.31 63.045 107.42 161.89 161.3 277.44 18.852 104.54 25.581 386.1 30.503 592.73 2.5628 108.26 4.7641 201.73 8.113 253.59 6.5722 101.44 16.525 921.88 23.097 1464.8 3.4276 278.84 5.1571 420.9 6.2263 478.03-81.995 12.319-348.53 11.041-424.33-2.3231zm1780.1-331.6c-0.99055 40.616-1.6509 76.374-2.2484 107.86-1.9339 102.8-3.2232 173.45-14.512 192.56-92.734 15.971-797.56 20.715-1258.7 20.373-1.2578-76.539-3.4905-259.93-5.9904-465.89-6.5722-543.74-16.572-1365.5-23.254-1469-3.2389-50.203-5.4401-142.93-8.003-250.3-0.77042-32.342-1.5566-65.875-2.4213-99.817h85.989c74.338 213.56 129.6 401.49 145.39 467.25 15.77 65.651 49.119 84.562 74.354 88.87 4.2766 0.73112 8.569 1.0849 12.83 1.0849 61.87 0 116.73-74.016 138.38-107.53 20.896-32.354 145.47-61.618 219.9-79.11l26.132-6.1791c32.436-7.716 54.071-24.386 64.386-49.574 22.421-54.771-16.446-128.81-114.29-286.54 38.977 0.80187 84.196 1.4387 133.98 1.4387 159.18 0 355.7-6.3678 478.67-32.735 35.329 321.79 54.794 1752.1 49.37 1967.2z" fill="#010101"/></g></svg>